<svg height="496pt" viewBox="0 0 496 496" width="496pt" xmlns="http://www.w3.org/2000/svg"><path d="m303.199219 355.921875-50 11.519531c-21.757813 5.039063-37.199219 24.398438-37.199219 46.71875v73.839844h272v-73.839844c0-22.320312-15.441406-41.679687-37.199219-46.71875l-49.921875-11.519531-16.878906-3.921875h-64zm0 0" fill="#e6e9ed"/><path d="m368 416 8 72h-48l8-72zm0 0" fill="#b4dd7f"/><path d="m376.71875 390.800781-.71875 1.199219-8 24h-32l-8-24-.71875-1.199219 24.71875-14.800781zm0 0" fill="#b4dd7f"/><path d="m400.800781 356.078125-8.800781 43.921875-15.28125-9.199219-24.71875-14.800781 32-24 16.878906 3.921875zm0 0" fill="#ccd1d9"/><path d="m352 376-24.71875 14.800781-15.28125 9.199219-8.800781-44.078125 16.800781-3.921875zm0 0" fill="#ccd1d9"/><path d="m433.359375 180.800781c-4.238281-5.839843-10.160156-10.402343-17.359375-12.800781l-7.121094-7.121094c-5.039062-5.039062-10.800781-9.4375-16.878906-13.039062-3.441406-2.078125-6.960938-3.839844-10.640625-5.359375-10.238281-4.242188-21.199219-6.480469-32.480469-6.480469-46.878906 0-84.878906 38-84.878906 84.878906v43.121094c0-1.039062.078125-2.078125.160156-3.121094 1.519532-16.160156 15.679688-28.238281 31.839844-28.800781.480469-.078125.878906-.078125 1.359375-.078125h33.761719c18.878906 0 37.199218-5.601562 52.878906-16l8 16h14.640625c.480469 0 .878906 0 1.359375.078125 16.160156.5625 30.320312 12.640625 31.839844 28.800781.082031 1.042969.160156 2.082032.160156 3.121094v-62.71875c0-7.519531-2.398438-14.722656-6.640625-20.480469zm0 0" fill="#b27946"/><g fill="#f0d0b4"><path d="m352 336c11.601562 0 22.398438-3.519531 31.28125-9.519531l.71875 1.519531v24l-32 24-32-24v-24l1.519531-1.039062c24.960938 8.800781 27.679688 9.039062 30.480469 9.039062zm0 0"/><path d="m440 264c0 17.601562-14.320312 32-32 32l-2.160156-.558594c1.441406-4.882812 2.160156-10.082031 2.160156-15.441406v-47.921875c16.160156.5625 30.320312 12.640625 31.839844 28.800781.082031 1.042969.160156 2.082032.160156 3.121094zm0 0"/><path d="m406.640625 232h-14.640625l-8-16c-15.679688 10.398438-34 16-52.878906 16h-33.761719c-.480469 0-.878906 0-1.359375.078125v47.921875c0 5.359375.71875 10.558594 2.160156 15.441406 2.640625 9.277344 7.601563 17.519532 14.238282 24.160156l9.121093 7.359376c24.960938 8.800781 27.679688 9.039062 30.480469 9.039062 11.601562 0 22.398438-3.519531 31.28125-9.519531 10.796875-7.28125 18.878906-18.242188 22.558594-31.039063 1.441406-4.882812 2.160156-10.082031 2.160156-15.441406v-47.921875c-.480469-.078125-.878906-.078125-1.359375-.078125zm0 0"/><path d="m296 280c0 5.359375.71875 10.558594 2.160156 15.441406l-2.160156.558594c-17.679688 0-32-14.398438-32-32 0-1.039062.078125-2.078125.160156-3.121094 1.519532-16.160156 15.679688-28.238281 31.839844-28.800781zm0 0"/></g><path d="m152 8h-144v320h312l.71875-1.519531c-3.039062-2.082031-5.757812-4.320313-8.320312-6.878907-6.636719-6.640624-11.597657-14.882812-14.238282-24.160156l-2.160156.558594c-17.679688 0-32-14.398438-32-32v-43.121094c0-46.878906 38-84.878906 84.878906-84.878906 11.28125 0 22.242188 2.238281 32.480469 6.480469 3.121094 1.28125 6.082031 2.800781 9.039063 4.398437l1.601562-2.878906v-136zm0 0" fill="#e6e9ed"/><path d="m156 161.679688-16 27.679687c-5.839844-3.4375-12.71875-5.359375-20-5.359375v-32c13.121094 0 25.441406 3.519531 36 9.679688zm0 0" fill="#b4dd7f"/><path d="m182.320312 188-27.679687 16c-3.519531-6.078125-8.5625-11.121094-14.640625-14.640625l16-27.679687c10.960938 6.242187 20.078125 15.359374 26.320312 26.320312zm0 0" fill="#b4dd7f"/><path d="m192 224h-32c0-7.28125-1.921875-14.160156-5.359375-20l27.679687-16c6.160157 10.558594 9.679688 22.878906 9.679688 36zm0 0" fill="#b4dd7f"/><path d="m120 264v32c-39.761719 0-72-32.238281-72-72h32c0 22.078125 17.921875 40 40 40zm0 0" fill="#fcd770"/><path d="m192 224c0 39.761719-32.238281 72-72 72v-32c22.078125 0 40-17.921875 40-40zm0 0" fill="#ff826e"/><path d="m120 152v32c-22.078125 0-40 17.921875-40 40h-32c0-39.761719 32.238281-72 72-72zm0 0" fill="#ff826e"/><path d="m452.59375 359.617188-60.59375-13.984376v-15.753906c8.550781-6.871094 15.289062-15.894531 19.414062-26.238281 9.984376-.871094 19.402344-5.273437 26.195313-12.746094 6.679687-7.34375 10.144531-16.992187 10.167969-26.894531h.222656v-62.703125c0-17.914063-11.015625-33.832031-27.609375-40.21875l-5.878906-5.878906c-4.480469-4.480469-9.34375-8.429688-14.503907-11.847657v-143.351562h-400.007812v336h312v9.632812l-60.59375 13.984376c-25.558594 5.894531-43.40625 28.335937-43.40625 54.566406v81.816406h288v-81.816406c0-26.230469-17.847656-48.671875-43.40625-54.566406zm-134.410156 1.015624 19.503906 14.625-20.0625 12.039063-5.074219-25.367187zm24.976562 63.367188h17.671875l6.222657 56h-30.117188zm19.070313-16h-20.46875l-4.59375-13.777344 14.832031-8.894531 14.824219 8.894531zm4.089843-32.742188 19.503907-14.625 5.640625 1.304688-5.074219 25.359375zm9.679688-27.257812-24 18-24-18v-8.710938c7.414062 3.015626 15.511719 4.710938 24 4.710938s16.585938-1.695312 24-4.710938zm-24-20c-26.472656 0-48-21.527344-48-48v-40h27.160156c17.433594 0 34.390625-4.359375 49.558594-12.671875l6.335938 12.671875h12.945312v40c0 26.472656-21.527344 48-48 48zm-63.65625-41.390625c-3.824219-1.296875-7.34375-3.433594-10.105469-6.464844-4.597656-5.066406-6.78125-11.640625-6.125-18.519531.863281-9.058594 7.277344-16.632812 15.886719-19.898438v38.273438c0 2.230469.121094 4.433594.34375 6.609375zm137.425781-6.464844c-2.761719 3.039063-6.289062 5.167969-10.105469 6.464844.214844-2.175781.335938-4.378906.335938-6.609375v-38.28125c8.609375 3.265625 15.023438 10.839844 15.886719 19.898438.65625 6.878906-1.519531 13.460937-6.117188 18.527343zm-14.089843-105.152343 1.792968.59375c11.078125 3.703124 18.527344 14.03125 18.527344 25.710937v31.382813c-7.078125-5.359376-15.863281-8.679688-25.375-8.679688h-9.679688l-9.839843-19.679688-7.539063 5.023438c-14.390625 9.585938-31.125 14.65625-48.40625 14.65625h-33.785156c-9.511719 0-18.296875 3.320312-25.375 8.679688v-11.832032c0-42.367187 34.480469-76.847656 76.847656-76.847656 20.527344 0 39.832032 7.992188 54.34375 22.503906zm-395.679688-158.992188h368v118.871094c-11.007812-4.496094-22.894531-6.871094-35.152344-6.871094-51.191406 0-92.847656 41.65625-92.847656 92.847656v43.152344h.222656c.023438 9.910156 3.488282 19.550781 10.167969 26.894531 6.792969 7.472657 16.210937 11.875 26.195313 12.746094 2.375 5.945313 5.589843 11.449219 9.535156 16.359375h-286.121094zm208 398.183594c0-18.742188 12.753906-34.769532 31-38.976563l41.953125-9.679687 9.429687 47.167968 16.738282-10.046874 4.726562 14.199218-7.007812 63.152344h-40.839844v-64h-16v64h-40zm256 65.816406h-40v-64h-16v64h-40.839844l-7.015625-63.144531 4.726563-14.199219 16.738281 10.046875 9.429687-47.167969 41.953126 9.679688c18.253906 4.210937 31.007812 20.234375 31.007812 38.96875zm0 0"/><path d="m120 144c-44.113281 0-80 35.886719-80 80s35.886719 80 80 80 80-35.886719 80-80-35.886719-80-80-80zm50.902344 41.367188-13.933594 8.046874c-1.921875-2.316406-4.066406-4.460937-6.382812-6.382812l8.046874-13.933594c4.625 3.519532 8.75 7.644532 12.269532 12.269532zm-3.621094 30.632812c-.503906-3.007812-1.296875-5.910156-2.335938-8.703125l14.046876-8.113281c2.230468 5.28125 3.71875 10.9375 4.457031 16.816406zm-47.28125 40c-17.648438 0-32-14.351562-32-32s14.351562-32 32-32 32 14.351562 32 32-14.351562 32-32 32zm8-79.28125v-16.167969c5.886719.738281 11.535156 2.226563 16.816406 4.457031l-8.113281 14.046876c-2.792969-1.039063-5.695313-1.824219-8.703125-2.335938zm-16-16.167969v16.167969c-20.054688 3.386719-35.886719 19.226562-39.28125 39.28125h-16.167969c3.632813-28.894531 26.554688-51.816406 55.449219-55.449219zm-55.449219 71.449219h16.167969c3.386719 20.054688 19.226562 35.886719 39.28125 39.28125v16.167969c-28.894531-3.632813-51.816406-26.554688-55.449219-55.449219zm71.449219 55.449219v-16.167969c20.054688-3.386719 35.886719-19.226562 39.28125-39.28125h16.167969c-3.632813 28.894531-26.554688 51.816406-55.449219 55.449219zm0 0"/><path d="m304 32h-92.945312l-40 80h-11.054688v-80h-16v80h-16v-64h-16v64h-16v-40h-16v40h-16v-24h-16v24h-16v16h148.945312l40-80h83.054688zm0 0"/><path d="m320 32h16v16h-16zm0 0"/><path d="m352 32h16v16h-16zm0 0"/><path d="m224 64h144v16h-144zm0 0"/><path d="m224 96h144v16h-144zm0 0"/></svg>