<svg height="512" viewBox="0 0 64 64" width="512" xmlns="http://www.w3.org/2000/svg"><g id="Online_Consult" data-name="Online Consult"><path d="m49 9h-42a4 4 0 0 0 -4 4v28h50v-28a4 4 0 0 0 -4-4z" fill="#5aaae7"/><path d="m57.68 27.47a9.8 9.8 0 0 1 -1.09 2.62l2.02 2.69-2.83 2.83-2.69-2.02a.405.405 0 0 1 -.09.05 9.427 9.427 0 0 1 -2.53 1.04l-.47 3.32h-4l-.47-3.32a9.8 9.8 0 0 1 -2.62-1.09l-2.69 2.02-2.83-2.83 2.02-2.69a9.8 9.8 0 0 1 -1.09-2.62l-3.32-.47v-4l3.32-.47a9.8 9.8 0 0 1 1.09-2.62l-2.02-2.69 2.83-2.83 1.67 1.25 1.02.77a9.8 9.8 0 0 1 2.62-1.09l.47-3.32h4l.47 3.32a9.427 9.427 0 0 1 2.53 1.04.405.405 0 0 1 .09.05l2.69-2.02 2.83 2.83-2.02 2.69a9.8 9.8 0 0 1 1.09 2.62l3.32.47v4z" fill="#ff9811"/><path d="m53 41v4a4.012 4.012 0 0 1 -4 4h-42a4.012 4.012 0 0 1 -4-4v-4z" fill="#c6c5ca"/><circle cx="48" cy="25" fill="#ffd422" r="5"/><path d="m40 3h-18a2.006 2.006 0 0 0 -2 2v10a2.006 2.006 0 0 0 2 2h4v5l4-5h10a2 2 0 0 0 1.89-1.36 1.956 1.956 0 0 0 .11-.64v-10a2.006 2.006 0 0 0 -2-2z" fill="#00ccb3"/><path d="m37 57a2.006 2.006 0 0 1 2 2 2.015 2.015 0 0 1 -2 2h-18a2.006 2.006 0 0 1 -2-2 2.015 2.015 0 0 1 2-2z" fill="#898890"/><path d="m35 57h-14l1-8h12z" fill="#acabb1"/><path d="m25 36.47v4.53h-2v-4.53a4.02 4.02 0 0 0 -2.21-3.58l-3.79-1.89v-1.54a3.98 3.98 0 0 0 2-3.46v-2l1-2v-1a2.006 2.006 0 0 0 -2-2h2a2.006 2.006 0 0 1 2 2v1l-1 2v2a3.98 3.98 0 0 1 -2 3.46v1.54l3.79 1.89a4.02 4.02 0 0 1 2.21 3.58z" fill="#3d9ae2"/><path d="m23 36.47v4.53h-16v-4.53a4.02 4.02 0 0 1 2.21-3.58l3.79-1.89a2 2 0 0 0 4 0l3.79 1.89a4.02 4.02 0 0 1 2.21 3.58z" fill="#ff5023"/><path d="m17 29v2a2 2 0 0 1 -4 0v-2z" fill="#ffc477"/><path d="m17 29v1.46a3.974 3.974 0 0 1 -4 0v-1.46z" fill="#ffb655"/><path d="m20 21v1l-1 2-3-2-2 2h-3l-1-1v-2l-1-2h9a2.006 2.006 0 0 1 2 2z" fill="#57565c"/><path d="m19 24v2a4 4 0 0 1 -8 0v-2h3l2-2z" fill="#ffc477"/><path d="m34.25 51h-12.5l.25-2h12z" fill="#898890"/><path d="m46 44h2v2h-2z"/><path d="m61.141 22.01-2.68-.38a10.788 10.788 0 0 0 -.682-1.639l1.631-2.17a1 1 0 0 0 -.093-1.308l-2.83-2.83a1 1 0 0 0 -1.307-.093l-1.18.886v-1.476a5.006 5.006 0 0 0 -5-5h-6v-3a3 3 0 0 0 -3-3h-18a3 3 0 0 0 -3 3v3h-12a5.006 5.006 0 0 0 -5 5v32a5.006 5.006 0 0 0 5 5h13.867l-.75 6h-1.117a3 3 0 0 0 0 6h18a3 3 0 0 0 0-6h-1.117l-.75-6h13.867a5.006 5.006 0 0 0 5-5v-9.476l1.18.886a1 1 0 0 0 1.307-.093l2.83-2.83a1 1 0 0 0 .093-1.308l-1.631-2.17a10.788 10.788 0 0 0 .682-1.639l2.68-.38a1 1 0 0 0 .859-.99v-4a1 1 0 0 0 -.859-.99zm-12.141-12.01a3 3 0 0 1 3 3v1.771c-.208-.081-.417-.163-.631-.232l-.379-2.679a1 1 0 0 0 -.99-.86h-4a1 1 0 0 0 -.99.86l-.379 2.679a10.832 10.832 0 0 0 -1.638.681l-.014-.011c.005-.07.021-.137.021-.209v-5zm-28-5a1 1 0 0 1 1-1h18a1 1 0 0 1 1 1v10a1 1 0 0 1 -1 1h-10a1 1 0 0 0 -.781.375l-2.219 2.774v-2.149a1 1 0 0 0 -1-1h-4a1 1 0 0 1 -1-1zm-14 5h12v5a3 3 0 0 0 3 3h3v4a1 1 0 0 0 .669.944 1.023 1.023 0 0 0 .331.056 1 1 0 0 0 .781-.375l3.699-4.625h6.244l1.5 1.991a10.788 10.788 0 0 0 -.682 1.639l-2.68.38a1 1 0 0 0 -.862.99v4a1 1 0 0 0 .859.99l2.68.38a10.788 10.788 0 0 0 .682 1.639l-1.631 2.17a1 1 0 0 0 .093 1.308l2.83 2.83a1 1 0 0 0 1.307.093l2.171-1.631a10.859 10.859 0 0 0 1.64.682l.379 2.679a1 1 0 0 0 .99.86h4a1 1 0 0 0 .99-.86l.379-2.679c.214-.069.423-.151.631-.232v4.771h-28v-3.53a5.051 5.051 0 0 0 -2.764-4.47l-3.236-1.619v-.407a4.977 4.977 0 0 0 2-3.974v-1.764l.895-1.789a1 1 0 0 0 .105-.447v-1a3 3 0 0 0 -3-3h-9a1 1 0 0 0 -.895 1.447l.895 1.789v1.764a1 1 0 0 0 .293.707l.707.707v1.586a4.977 4.977 0 0 0 2 3.974v.407l-3.24 1.619a5.049 5.049 0 0 0 -2.76 4.47v3.53h-2v-27a3 3 0 0 1 3-3zm12 11.764-.388.776-2.057-1.372a1 1 0 0 0 -1.262.125l-1.707 1.707h-2.172l-.414-.414v-1.586a1 1 0 0 0 -.105-.447l-.277-.553h7.382a1 1 0 0 1 1 1zm-5 3.236a1 1 0 0 0 .707-.293l1.42-1.42 1.873 1.248v1.465a3 3 0 0 1 -6 0v-1zm0 5.9a5 5 0 0 0 2 0v.1a1 1 0 0 1 -2 0zm-1.622 1.529a2.973 2.973 0 0 0 5.244 0l2.718 1.355a3.034 3.034 0 0 1 1.66 2.686v3.53h-14v-3.53a3.033 3.033 0 0 1 1.656-2.685zm25.622 26.571a1 1 0 0 1 -1 1h-18a1 1 0 0 1 0-2h18a1 1 0 0 1 1 1zm-4.133-3h-11.734l.75-6h10.234zm15.133-8h-42a3 3 0 0 1 -3-3v-3h48v3a3 3 0 0 1 -3 3zm11-21.868-2.461.348a1 1 0 0 0 -.828.744 8.716 8.716 0 0 1 -.979 2.351 1 1 0 0 0 .058 1.115l1.5 2-1.6 1.6-2-1.5a1 1 0 0 0 -1.115-.058 8.773 8.773 0 0 1 -2.352.979 1 1 0 0 0 -.744.829l-.347 2.46h-2.264l-.347-2.46a1 1 0 0 0 -.744-.829 8.773 8.773 0 0 1 -2.352-.979 1 1 0 0 0 -1.115.058l-2 1.5-1.6-1.6 1.5-2a1 1 0 0 0 .058-1.115 8.716 8.716 0 0 1 -.979-2.351 1 1 0 0 0 -.828-.744l-2.461-.348v-2.264l2.461-.348a1 1 0 0 0 .828-.744 8.716 8.716 0 0 1 .979-2.351 1 1 0 0 0 -.058-1.115l-.984-1.31h.774a2.97 2.97 0 0 0 1.061-.2l-.839.839 1.414 1.414 1.414-1.414-1.25-1.254a2.916 2.916 0 0 0 .348-.3l.161.12a1 1 0 0 0 1.117.06 8.773 8.773 0 0 1 2.352-.979 1 1 0 0 0 .744-.829l.346-2.457h2.264l.347 2.46a1 1 0 0 0 .744.829 8.773 8.773 0 0 1 2.352.979 1 1 0 0 0 1.115-.058l2-1.5 1.6 1.6-1.5 2a1 1 0 0 0 -.058 1.115 8.716 8.716 0 0 1 .979 2.351 1 1 0 0 0 .828.744l2.461.348z"/><path d="m48 19a6 6 0 1 0 6 6 6.006 6.006 0 0 0 -6-6zm0 10a4 4 0 1 1 4-4 4 4 0 0 1 -4 4z"/><path d="m47 15h2v2h-2z"/><path d="m38 24h2v2h-2z"/><path d="m40.636 30.364h2v2h-2z" transform="matrix(.707 -.707 .707 .707 -9.983 38.627)"/><path d="m47 33h2v2h-2z"/><path d="m53.364 30.364h2v2h-2z" transform="matrix(.707 -.707 .707 .707 -6.258 47.617)"/><path d="m56 24h2v2h-2z"/><path d="m53.364 17.636h2v2h-2z" transform="matrix(.707 -.707 .707 .707 2.75 43.909)"/><path d="m24 7h2v2h-2z"/><path d="m28 7h10v2h-10z"/><path d="m24 11h14v2h-14z"/></g></svg>