<svg id="Layer_5" enable-background="new 0 0 64 64" height="512" viewBox="0 0 64 64" width="512" xmlns="http://www.w3.org/2000/svg" xmlns:xlink="http://www.w3.org/1999/xlink"><linearGradient id="SVGID_1_" gradientUnits="userSpaceOnUse" x1="32" x2="32" y1="63" y2="1"><stop offset="0" stop-color="#9f2fff"/><stop offset="1" stop-color="#0bb1d3"/></linearGradient><path d="m49 47v1c0 .552.449 1 1 1h2c1.654 0 3 1.346 3 3v3h-3v2h-2v-2c-1.654 0-3-1.346-3-3h2c0 .552.449 1 1 1h3v-1c0-.552-.449-1-1-1h-2c-1.654 0-3-1.346-3-3v-3h3v-2h2v2c1.654 0 3 1.346 3 3h-2c0-.552-.449-1-1-1zm12.295-2.118c1.115 1.858 1.705 3.986 1.705 6.155 0 6.597-5.367 11.963-11.963 11.963-6.67 0-12.037-5.366-12.037-11.963 0-2.169.59-4.297 1.705-6.155l4.155-6.926-4.478-8.956h3.618c1.328 0 2.034.808 2.501 1.342.435.497.608.658.996.658s.561-.161.996-.658c.332-.38.79-.893 1.502-1.161l.002-8.181h-2.997c-3.86 0-7-3.141-7-7v-1h5c1.957 0 3.727.81 4.998 2.108l.002-6.108h-3c-3.86 0-7-3.141-7-7v-1h5c3.86 0 7 3.141 7 7v1 .111c1.271-1.3 3.042-2.111 5-2.111h5v1c0 3.859-3.14 7-7 7h-3.002l-.001 4.937c0 .021.003.042.003.063v1h-.003v.114c1.271-1.302 3.043-2.114 5.003-2.114h5v1c0 3.859-3.14 7-7 7h-3.005l-.001 2.181c.712.267 1.171.78 1.504 1.16.436.498.609.659.999.659s.563-.161.999-.659c.468-.534 1.175-1.341 2.504-1.341h3.618l-4.478 8.956zm-9.194-19.882h2.899c2.415 0 4.435-1.721 4.899-4h-2.899c-2.415 0-4.435 1.721-4.899 4zm0-12h2.899c2.415 0 4.435-1.721 4.899-4h-2.899c-2.415 0-4.435 1.721-4.899 4zm-2.202-6c-.464-2.279-2.484-4-4.899-4h-2.899c.464 2.279 2.484 4 4.899 4zm0 12c-.464-2.279-2.485-4-4.899-4h-2.899c.464 2.279 2.485 4 4.899 4zm-6.281 12 3 6h8.764l3-6h-.382c-.39 0-.563.161-.999.659-.468.534-1.175 1.341-2.504 1.341s-2.036-.807-2.504-1.341c-.436-.498-.609-.659-.999-.659-.388 0-.561.161-.996.658-.467.534-1.173 1.342-2.501 1.342-1.329 0-2.034-.808-2.501-1.342-.435-.497-.609-.658-.996-.658zm17.382 20.037c0-1.806-.491-3.579-1.42-5.126l-4.146-6.911h-8.867l-4.146 6.911c-.929 1.547-1.42 3.32-1.42 5.126-.001 5.493 4.469 9.963 9.962 9.963 5.567 0 10.037-4.47 10.037-9.963zm-25-13.037h2v-2h-2zm-4 0h2v-2h-2zm4-4h2v-2h-2zm-2-2h-2v2h2zm-4 2v-2h-2v2zm6-6h2v2h-23c-6.617 0-12 5.383-12 12s5.383 12 12 12h12v2.079l7.256-5.079-7.256-5.079v2.079h-12c-3.309 0-6-2.691-6-6s2.691-6 6-6h15v2h-15c-2.206 0-4 1.794-4 4s1.794 4 4 4h10v-3.921l12.744 8.921-12.744 8.921v-3.921h-10c-7.72 0-14-6.28-14-14 0-5.168 2.823-9.681 7-12.106v-15.894h8v14h2v-18h8v18h2v-22h8zm-6 0h4v-20h-4zm-10 0h4v-16h-4zm-10 .939c1.258-.483 2.599-.789 4-.888v-12.051h-4z" fill="url(#SVGID_1_)"/></svg>