<?xml version="1.0" standalone="no"?>
<!DOCTYPE svg PUBLIC "-//W3C//DTD SVG 20010904//EN"
 "http://www.w3.org/TR/2001/REC-SVG-20010904/DTD/svg10.dtd">
<svg version="1.0" xmlns="http://www.w3.org/2000/svg"
 width="512.000000pt" height="512.000000pt" viewBox="0 0 512.000000 512.000000"
 preserveAspectRatio="xMidYMid meet">

<g transform="translate(0.000000,512.000000) scale(0.100000,-0.100000)"
fill="#000000" stroke="none">
<path d="M10 3821 c-15 -29 -14 -2455 1 -2484 6 -12 21 -30 33 -39 20 -16 103
-18 1301 -18 l1280 0 1228 1227 c676 676 1237 1241 1249 1256 19 26 19 29 4
52 l-16 25 -2535 0 c-2495 0 -2534 0 -2545 -19z m865 -446 c55 -8 133 -24 174
-35 98 -27 231 -80 231 -92 0 -11 -142 -263 -163 -291 -11 -14 -18 -13 -72 10
-144 62 -336 90 -432 64 -58 -16 -103 -55 -103 -91 0 -64 76 -111 316 -195 86
-31 189 -72 228 -93 94 -49 197 -150 221 -217 10 -27 21 -53 24 -57 4 -4 90
215 191 487 l185 495 225 0 225 0 215 -586 215 -586 3 587 2 587 368 -4 c311
-4 378 -7 442 -22 159 -39 279 -112 342 -210 59 -91 82 -179 82 -311 0 -134
-24 -223 -85 -315 -104 -156 -267 -225 -556 -237 l-153 -6 0 -244 0 -243 -382
2 -382 3 -34 110 c-19 61 -36 112 -38 114 -2 2 -38 -3 -79 -12 -124 -28 -285
-22 -445 15 -8 2 -27 -41 -52 -114 l-40 -118 -234 0 -234 0 24 64 25 65 -61
-39 c-117 -76 -250 -112 -413 -111 -182 1 -375 45 -525 121 l-60 30 80 161 81
160 54 -31 c99 -56 189 -82 310 -87 65 -3 127 -1 150 6 84 22 128 109 85 164
-29 37 -69 56 -245 117 -303 104 -427 193 -484 346 -27 71 -36 166 -22 239 55
295 386 462 796 400z"/>
<path d="M3000 2821 l0 -201 88 0 c152 1 225 31 263 108 29 58 24 163 -9 209
-39 56 -101 78 -229 81 l-113 4 0 -201z"/>
<path d="M1821 2612 c-41 -130 -76 -242 -78 -248 -6 -17 74 -36 158 -36 74 0
149 15 149 30 1 12 -143 477 -149 484 -3 4 -39 -100 -80 -230z"/>
</g>
</svg>
