<svg id="_x33_0" enable-background="new 0 0 64 64" height="512" viewBox="0 0 64 64" width="512" xmlns="http://www.w3.org/2000/svg"><path d="m57.07 23.9-3.7-2.64c-.2.09-.41.18-.62.25l-.75 4.49h-1.5c.968 2.479 1.5 5.178 1.5 8 0 12.15-9.85 22-22 22s-22-9.85-22-22 9.85-22 22-22c2.822 0 5.521.531 8 1.5v-1.5l4.49-.75c.07-.21.16-.42.25-.62l-2.64-3.7.32-.32c-2.769-.785-6.581-1.61-10.42-1.61-15.99 0-29 13.009-29 29s13.01 29 29 29 29-13.009 29-29c0-3.515-.622-6.935-1.843-10.187z" fill="#f0bc5e"/><path d="m63 11.153-4.365-.729 2.571-3.603-4.027-4.027-3.603 2.57-.729-4.364h-5.693l-.729 4.365-3.603-2.57-4.027 4.027 2.571 3.603-4.366.728v.954c-2.256-.721-4.6-1.107-7-1.107-12.683 0-23 10.318-23 23s10.317 23 23 23 23-10.318 23-23c0-2.4-.386-4.744-1.107-7h.954l.729-4.365 3.603 2.57 4.027-4.027-2.571-3.603 4.365-.728zm-32 1.893v4.954c0 .551-.448 1-1 1s-1-.449-1-1v-4.949c.334-.016.662-.051 1-.051.336 0 .667.03 1 .046zm-22 20.954c0-.338.035-.666.051-1h4.949c.552 0 1 .449 1 1s-.448 1-1 1h-4.949c-.016-.334-.051-.662-.051-1zm20 20.949v-4.949c0-.551.448-1 1-1s1 .449 1 1v4.949c-.334.016-.662.051-1 .051s-.666-.035-1-.051zm22-20.949c0 .338-.035.666-.051 1h-4.949c-.552 0-1-.449-1-1s.448-1 1-1h4.954c.016.333.046.664.046 1zm-.235-3h-4.765c-1.654 0-3 1.346-3 3s1.346 3 3 3h4.76c-.338 2.347-1.056 4.57-2.105 6.601l-4.144-2.461-1.021 1.72 4.163 2.472c-1.632 2.533-3.788 4.689-6.321 6.321l-2.472-4.164-1.719 1.021 2.461 4.144c-2.031 1.05-4.254 1.767-6.601 2.105v-4.759c0-1.654-1.346-3-3-3s-3 1.346-3 3v4.76c-2.352-.339-4.578-1.058-6.612-2.111l2.479-4.293-1.732-1-2.477 4.29c-2.528-1.631-4.681-3.785-6.31-6.314l4.163-2.472-1.021-1.72-4.144 2.461c-1.052-2.031-1.769-4.254-2.107-6.601h4.76c1.654 0 3-1.346 3-3s-1.346-3-3-3h-4.76c.338-2.347 1.056-4.57 2.105-6.601l4.144 2.461 1.021-1.72-4.163-2.472c1.632-2.533 3.788-4.689 6.321-6.321l2.472 4.164 1.719-1.021-2.461-4.144c2.031-1.05 4.254-1.767 6.601-2.105v4.759c0 1.654 1.346 3 3 3s3-1.346 3-3v-4.765c1.364.195 2.7.521 4 .982v2.63l4.365.729-2.571 3.603 4.027 4.027 3.603-2.57.73 4.364h2.63c.461 1.3.787 2.636.982 4zm10.235-15.847-4.25.71-.189.573c-.059.178-.137.355-.213.524l-.235.523 2.482 3.478-1.633 1.633-3.479-2.482-.523.236c-.17.077-.347.154-.524.213l-.571.19-.712 4.249h-2.307l-.71-4.249-.571-.19c-.178-.059-.354-.136-.524-.213l-.523-.236-3.479 2.482-1.633-1.633 2.482-3.478-.235-.523c-.076-.169-.154-.346-.213-.524l-.189-.573-4.251-.71v-2.307l4.25-.71.189-.573c.059-.178.137-.355.213-.524l.235-.523-2.482-3.478 1.633-1.633 3.479 2.482.523-.236c.17-.077.347-.154.524-.213l.571-.19.712-4.248h2.307l.71 4.249.571.19c.178.059.354.136.524.213l.523.236 3.479-2.482 1.633 1.633-2.482 3.478.235.523c.076.169.154.346.213.524l.189.573 4.25.71v2.306z"/><path d="m50 9c-2.757 0-5 2.243-5 5s2.243 5 5 5 5-2.243 5-5-2.243-5-5-5zm0 8c-1.654 0-3-1.346-3-3s1.346-3 3-3 3 1.346 3 3-1.346 3-3 3z"/><path d="m33 27h-2v-2h-2v2h-2c-1.103 0-2 .897-2 2v4c0 1.103.897 2 2 2h6v4h-6v-2h-2v2c0 1.103.897 2 2 2h2v2h2v-2h2c1.103 0 2-.897 2-2v-4c0-1.103-.897-2-2-2h-6v-4h6v2h2v-2c0-1.103-.897-2-2-2z"/></svg>