<svg height="512" viewBox="0 0 64 64" width="512" xmlns="http://www.w3.org/2000/svg"><g id="Fill_Outlines" data-name="Fill Outlines"><g id="Color"><g><rect fill="#aae1f9" height="30" rx="3" width="20" x="3" y="31"/><path d="m9.5 31h-3.5a3 3 0 0 0 -3 3v24a3 3 0 0 0 3 3h14a3 3 0 0 0 3-3v-9z" fill="#57b7eb"/><path d="m19 56a12 12 0 0 1 -12-12v-13h-1a3 3 0 0 0 -3 3v24a3 3 0 0 0 3 3h14a3 3 0 0 0 3-3v-2z" fill="#4891d3"/><path d="m21 40-2-2h-6v14h16v-12z" fill="#fcbc04"/><path d="m53 9a8.024 8.024 0 0 0 -2.075.281 10.984 10.984 0 0 0 -19.72-.271c-.069 0-.136-.01-.2-.01a8 8 0 0 0 0 16h21.995a8 8 0 0 0 0-16z" fill="#aae1f9"/><path d="m57 21h-22a7.991 7.991 0 0 1 -7.288-11.288 8 8 0 0 0 3.288 15.288h22a8 8 0 0 0 7.288-4.712 7.972 7.972 0 0 1 -3.288.712z" fill="#57b7eb"/><path d="m13 44h16v8h-16z" fill="#f9e109"/><g fill="#d0d8da"><path d="m43 53h18v8h-18z"/><path d="m43 45h18v8h-18z"/><circle cx="41" cy="23" r="9"/></g><path d="m46 27a8.99 8.99 0 0 1 -8.349-12.349 9 9 0 1 0 11.7 11.7 8.963 8.963 0 0 1 -3.351.649z" fill="#93999a"/><path d="m50 50a5 5 0 0 1 -5-5h-2v8h18v-3z" fill="#93999a"/><path d="m50 58a5 5 0 0 1 -5-5h-2v8h18v-3z" fill="#93999a"/><path d="m22 50a6.994 6.994 0 0 1 -6.92-6h-2.08v8h16v-2z" fill="#fcbc04"/><path d="m13 42h16v2h-16z" fill="#e59730"/></g></g><g id="Outline"><g fill="#323232"><path d="m27.72 25.375a1 1 0 1 0 .729-1.862 6.995 6.995 0 0 1 2.588-13.513l.147.007a.961.961 0 0 0 .912-.545 9.984 9.984 0 0 1 17.926.246 1 1 0 0 0 1.163.536 7 7 0 1 1 2.549 13.714 1 1 0 0 0 .1 2 .924.924 0 0 0 .105-.006 9 9 0 0 0 -.939-17.952 8.727 8.727 0 0 0 -1.542.139 11.981 11.981 0 0 0 -20.846-.131 9 9 0 0 0 -2.892 17.367z"/><path d="m23 55a1 1 0 0 0 -1 1v2a2 2 0 0 1 -2 2h-14a2 2 0 0 1 -2-2v-24a2 2 0 0 1 2-2h14a2 2 0 0 1 2 2v2a1 1 0 0 0 2 0v-2a4 4 0 0 0 -4-4h-14a4 4 0 0 0 -4 4v24a4 4 0 0 0 4 4h14a4 4 0 0 0 4-4v-2a1 1 0 0 0 -1-1z"/><path d="m29 39h-7.586l-1.707-1.707a1 1 0 0 0 -.707-.293h-6a1 1 0 0 0 -1 1v14a1 1 0 0 0 1 1h16a1 1 0 0 0 1-1v-12a1 1 0 0 0 -1-1zm-10.414 0 1.707 1.707a1 1 0 0 0 .707.293h7v2h-14v-4zm9.414 12h-14v-6h14z"/><circle cx="7" cy="35" r="1"/><circle cx="11" cy="35" r="1"/><path d="m9 57a1 1 0 0 0 1 1h6a1 1 0 0 0 0-2h-6a1 1 0 0 0 -1 1z"/><path d="m39 35a1 1 0 0 0 -1 1v9h-5a1 1 0 0 0 0 2h6a1 1 0 0 0 1-1v-10a1 1 0 0 0 -1-1z"/><path d="m9 28a1 1 0 0 0 1-1v-9h7a1 1 0 0 0 0-2h-8a1 1 0 0 0 -1 1v10a1 1 0 0 0 1 1z"/><circle cx="47" cy="57" r="1"/><circle cx="51" cy="57" r="1"/><path d="m55 56a1 1 0 0 0 0 2h2a1 1 0 0 0 0-2z"/><path d="m61 44h-18a1 1 0 0 0 -1 1v16a1 1 0 0 0 1 1h18a1 1 0 0 0 1-1v-4a1 1 0 0 0 -2 0v3h-16v-6h17a1 1 0 0 0 1-1v-8a1 1 0 0 0 -1-1zm-1 8h-16v-6h16z"/><circle cx="47" cy="49" r="1"/><circle cx="51" cy="49" r="1"/><path d="m55 50h2a1 1 0 0 0 0-2h-2a1 1 0 0 0 0 2z"/><path d="m59 42a1 1 0 0 0 1-1v-10a1 1 0 0 0 -1-1h-8a1 1 0 0 0 0 2h7v9a1 1 0 0 0 1 1z"/><path d="m45.95 22.682a1 1 0 0 0 .707-1.707 8 8 0 0 0 -11.314 0 1 1 0 1 0 1.414 1.414 6 6 0 0 1 8.486 0 1 1 0 0 0 .707.293z"/><path d="m43.121 25.51a1 1 0 0 0 .707-1.707 4 4 0 0 0 -5.656 0 1 1 0 0 0 1.414 1.414 2 2 0 0 1 2.828 0 .993.993 0 0 0 .707.293z"/><circle cx="41" cy="27.632" r="1"/><path d="m51 23a9.966 9.966 0 0 0 -1.541-5.317 1 1 0 1 0 -1.692 1.065 8.021 8.021 0 1 1 -2.515-2.515 1 1 0 1 0 1.065-1.692 9.993 9.993 0 1 0 4.683 8.459z"/></g></g></g></svg>