<svg height="512pt" viewBox="0 -1 512 511" width="512pt" xmlns="http://www.w3.org/2000/svg"><path d="m109.144531 214.703125c-14.492187-16.449219-36.496093-50.429687-32.203125-101.945313l-39.101562 5.046876s1.085937 78.15625 66.699218 103.558593c4.050782 1.566407 7.476563-3.398437 4.605469-6.660156zm0 0" fill="#1ab975"/><path d="m512 16.902344v110.992187c0 9.050781-7.339844 16.394531-16.402344 16.394531h-177.84375c-9.050781 0-16.394531-7.34375-16.394531-16.394531v-110.992187c0-9.0625 7.34375-16.402344 16.394531-16.402344h177.84375c9.0625 0 16.402344 7.339844 16.402344 16.402344zm0 0" fill="#d63030"/><path d="m512 16.902344v110.992187c0 9.050781-7.339844 16.394531-16.402344 16.394531h-145.519531c-9.050781 0-16.390625-7.34375-16.390625-16.394531v-110.992187c0-9.0625 7.339844-16.402344 16.390625-16.402344h145.519531c9.0625 0 16.402344 7.339844 16.402344 16.402344zm0 0" fill="#f44545"/><path d="m474.160156 117.804688s-1.085937 78.15625-66.699218 103.558593c-4.054688 1.566407-7.480469-3.398437-4.609376-6.660156 14.492188-16.449219 36.5-50.429687 32.207032-101.945313" fill="#f44545"/><path d="m417.738281 72.398438 24.710938-24.710938c3.054687-3.054688 3.054687-8.003906 0-11.058594-3.054688-3.054687-8.007813-3.054687-11.0625 0l-24.707031 24.707032-24.710938-24.710938c-3.054688-3.050781-8.007812-3.050781-11.0625 0-3.050781 3.058594-3.050781 8.007812 0 11.0625l24.710938 24.710938-24.710938 24.707031c-3.050781 3.054687-3.050781 8.007812 0 11.0625 1.53125 1.527343 3.53125 2.289062 5.53125 2.289062 2.003906 0 4.003906-.761719 5.53125-2.289062l24.710938-24.710938 24.710937 24.710938c1.527344 1.527343 3.527344 2.289062 5.527344 2.289062 2.003906 0 4.003906-.761719 5.53125-2.289062 3.054687-3.054688 3.054687-8.007813 0-11.0625zm0 0" fill="#af2727"/><path d="m373.703125 488.625c0 11.023438-8.933594 19.957031-19.953125 19.957031h-198.484375c-11.023437 0-19.957031-8.925781-19.957031-19.957031 0-50.246094 40.707031-91.1875 91.183594-91.1875h56.027343c50.46875 0 91.183594 40.941406 91.183594 91.1875zm0 0" fill="#d2d2d7"/><path d="m373.703125 488.625c0 11.023438-8.933594 19.957031-19.953125 19.957031h-179.929688c-11.023437 0-19.953124-8.925781-19.953124-19.957031 0-50.246094 40.707031-91.1875 91.179687-91.1875h37.472656c50.46875 0 91.183594 40.941406 91.183594 91.1875zm0 0" fill="#ebebf0"/><path d="m276.691406 397.339844-22.1875 37.652344-22.183594-37.652344v-53.847656h44.371094zm0 0" fill="#e3a76f"/><path d="m188.859375 469.382812v39.199219h-9.28125v-39.199219c0-2.5625 2.078125-4.640624 4.640625-4.640624 2.566406 0 4.640625 2.078124 4.640625 4.640624zm0 0" fill="#d2d2d7"/><path d="m329.433594 469.382812v39.199219h-9.277344v-39.199219c0-2.5625 2.070312-4.640624 4.636719-4.640624 2.5625 0 4.640625 2.078124 4.640625 4.640624zm0 0" fill="#d2d2d7"/><path d="m265.863281 470.640625h-22.300781l-11.75 37.941406h46.1875zm0 0" fill="#6990d7"/><path d="m264.609375 471.585938h-20.207031c-4.082032 0-7.421875-3.339844-7.421875-7.421876v-17.878906c0-4.082031 3.339843-7.421875 7.421875-7.421875h20.207031c4.082031 0 7.421875 3.339844 7.421875 7.421875v17.878906c0 4.082032-3.339844 7.421876-7.421875 7.421876zm0 0" fill="#91aee2"/><path d="m216.554688 308.34375c0 14.320312-11.609376 25.929688-25.929688 25.929688-14.316406 0-25.925781-11.609376-25.925781-25.929688s11.609375-25.925781 25.925781-25.925781c14.320312 0 25.929688 11.605469 25.929688 25.925781zm0 0" fill="#e3a76f"/><path d="m346.378906 308.347656c0 14.320313-11.609375 25.929688-25.925781 25.929688-14.320313 0-25.929687-11.609375-25.929687-25.929688 0-14.320312 11.609374-25.925781 25.929687-25.925781 14.316406 0 25.925781 11.605469 25.925781 25.925781zm0 0" fill="#e3a76f"/><path d="m322.949219 206.253906v120.5625c0 31.351563-36.691407 57.707032-58.449219 65.25-4.082031 1.410156-7.632812 2.160156-10.324219 2.160156-8.519531 0-25.714843-7.542968-40.773437-19.746093-15.0625-12.195313-27.996094-29.050781-27.996094-47.664063v-120.5625c0-12.289062 9.964844-22.25 22.25-22.25h93.039062c12.292969 0 22.253907 9.957032 22.253907 22.25zm0 0" fill="#e3a76f"/><path d="m322.949219 206.253906v120.5625c0 27.128906-27.472657 50.515625-48.972657 61.210938-5.953124 2.960937-12.949218 2.984375-18.902343.027344-6.761719-3.359376-14.117188-7.980469-21.023438-13.574219-15.066406-12.195313-27.996093-29.050781-27.996093-47.660157v-120.566406c0-12.289062 9.964843-22.25 22.25-22.25h72.390624c12.289063 0 22.253907 9.960938 22.253907 22.25zm0 0" fill="#f2bb88"/><g fill="#ae583e"><path d="m298.929688 308.5c0 4.5-3.648438 8.148438-8.148438 8.148438s-8.148438-3.648438-8.148438-8.148438 3.648438-8.148438 8.148438-8.148438 8.148438 3.648438 8.148438 8.148438zm0 0"/><path d="m306.597656 288.582031c-.9375 0-1.886718-.253906-2.742187-.792969-6.339844-3.984374-18.757813-2.585937-23.003907-1.714843-2.789062.574219-5.519531-1.21875-6.097656-4.007813-.578125-2.789062 1.207032-5.515625 3.996094-6.097656 1.976562-.414062 19.617188-3.824219 30.601562 3.082031 2.414063 1.515625 3.140626 4.703125 1.625 7.117188-.984374 1.558593-2.660156 2.414062-4.378906 2.414062zm0 0"/><path d="m228.445312 308.5c0 4.5-3.648437 8.148438-8.148437 8.148438s-8.148437-3.648438-8.148437-8.148438 3.648437-8.148438 8.148437-8.148438 8.148437 3.648438 8.148437 8.148438zm0 0"/><path d="m204.480469 288.582031c-1.71875 0-3.394531-.855469-4.375-2.414062-1.519531-2.414063-.792969-5.601563 1.621093-7.117188 10.984376-6.90625 28.625-3.496093 30.601563-3.082031 2.792969.582031 4.582031 3.316406 4 6.105469-.582031 2.792969-3.320313 4.578125-6.105469 4-4.253906-.875-16.660156-2.269531-23 1.714843-.855468.539063-1.804687.792969-2.742187.792969zm0 0"/><path d="m255.539062 361.589844c-11.488281 0-20.832031-9.347656-20.832031-20.835938 0-2.851562 2.308594-5.160156 5.160157-5.160156 2.851562 0 5.160156 2.308594 5.160156 5.160156 0 5.796875 4.714844 10.511719 10.511718 10.511719 5.792969 0 10.507813-4.714844 10.507813-10.511719 0-2.851562 2.3125-5.160156 5.160156-5.160156 2.851563 0 5.164063 2.308594 5.164063 5.160156 0 11.488282-9.34375 20.835938-20.832032 20.835938zm0 0"/><path d="m333 258.9375h-21.171875c-11.335937 0-20.53125-9.191406-20.53125-20.53125v-37.5625c0-11.339844 9.195313-20.53125 20.53125-20.53125h4.449219c11.339844 0 20.53125 9.191406 20.53125 20.53125v54.285156c0 2.101563-1.707032 3.808594-3.808594 3.808594zm0 0"/></g><path d="m324.3125 173.742188v6.910156c0 27.957031-55.929688 82.785156-129.863281 82.308594h-12.761719c-7.171875 0-12.992188-4.019532-12.992188-8.96875v-55.949219c0-15.507813 18.265626-28.082031 40.785157-28.082031h109.359375c.820312 0 1.605468.125 2.300781.351562 1.867187.601562 3.171875 1.90625 3.171875 3.429688zm0 0" fill="#c0694e"/><path d="m321.136719 170.3125c-12.800781 29.136719-63.078125 69.652344-126.6875 69.246094h-12.761719c-7.171875 0-12.992188-4.019532-12.992188-8.964844v-32.550781c0-15.507813 18.265626-28.082031 40.785157-28.082031h109.359375c.816406 0 1.601562.125 2.296875.351562zm0 0" fill="#c97e67"/><path d="m215.804688 382.933594-17.019532 17.753906c-1.367187 1.425781-1.847656 3.488281-1.25 5.371094l15.453125 48.671875c2.335938 4.269531 8.328125 5.628906 12.605469 2.859375l30.519531-19.765625-31.753906-53.894531c-1.816406-3.085938-6.078125-3.582032-8.554687-.996094zm0 0" fill="#aec2e9"/><path d="m293.207031 382.933594 17.019531 17.753906c1.367188 1.425781 1.847657 3.488281 1.25 5.371094l-15.453124 48.671875c-2.332032 4.269531-8.328126 5.628906-12.605469 2.859375l-30.519531-19.765625 31.753906-53.894531c1.816406-3.085938 6.078125-3.582032 8.554687-.996094zm0 0" fill="#aec2e9"/><path d="m210.640625 16.902344v110.992187c0 9.050781-7.34375 16.394531-16.394531 16.394531h-177.855469c-9.050781 0-16.390625-7.34375-16.390625-16.394531v-110.992187c0-9.0625 7.339844-16.402344 16.390625-16.402344h177.855469c9.050781 0 16.394531 7.339844 16.394531 16.402344zm0 0" fill="#1ab975"/><path d="m210.640625 16.902344v110.992187c0 9.050781-7.34375 16.394531-16.394531 16.394531h-146.570313c-9.050781 0-16.394531-7.34375-16.394531-16.394531v-110.992187c0-9.0625 7.34375-16.402344 16.394531-16.402344h146.570313c9.050781 0 16.394531 7.339844 16.394531 16.402344zm0 0" fill="#1ed688"/><path d="m142.339844 72.398438c0 20.441406-16.574219 37.015624-37.019532 37.015624-20.445312 0-37.019531-16.574218-37.019531-37.015624 0-20.445313 16.574219-37.019532 37.019531-37.019532 20.445313 0 37.019532 16.574219 37.019532 37.019532zm0 0" fill="#169b62"/></svg>